Coordinates
version=1
nRows=10
nColumns=40
inDegrees=yes

Units are S.I. units (second, meters, Newtons, ...)
If the header above contains a line with 'inDegrees', this indicates whether rotational values are in degrees (yes) or radians (no).

endheader
time	pelvis_tilt	pelvis_list	pelvis_rotation	pelvis_tx	pelvis_ty	pelvis_tz	hip_flexion_r	hip_adduction_r	hip_rotation_r	knee_angle_r	knee_angle_r_beta	ankle_angle_r	subtalar_angle_r	mtp_angle_r	hip_flexion_l	hip_adduction_l	hip_rotation_l	knee_angle_l	knee_angle_l_beta	ankle_angle_l	subtalar_angle_l	mtp_angle_l	lumbar_extension	lumbar_bending	lumbar_rotation	arm_flex_r	arm_add_r	arm_rot_r	elbow_flex_r	pro_sup_r	wrist_flex_r	wrist_dev_r	arm_flex_l	arm_add_l	arm_rot_l	elbow_flex_l	pro_sup_l	wrist_flex_l	wrist_dev_l
      0.50000000	      9.62600607	      6.82031152	      1.89995316	     -0.33625476	      1.04172877	     -0.75425824	     -2.55468086	     -1.74092124	     -4.53110513	      9.47194111	      0.16531656	     -4.79553531	      0.00000000	      0.00000000	     28.17776497	      6.41455909	      1.95175036	      6.65217422	      0.11610234	     -7.36680644	      0.00000000	      0.00000000	    -23.47801904	     -4.16757297	     -0.78500880	     68.20056256	    -16.98135172	     16.73058807	     52.53581172	     85.22435519	      0.00000000	      0.00000000	     74.84725137	     -9.37307224	     22.36616721	     43.23178819	     86.71723849	      0.00000000	      0.00000000
      0.50500000	      9.62610849	      6.85236539	      1.91250410	     -0.33628869	      1.04166963	     -0.75426547	     -2.43462398	     -1.79502605	     -4.59889690	      9.72952830	      0.16981230	     -4.72527646	      0.00000000	      0.00000000	     28.18667551	      6.47482621	      1.98527515	      6.55778157	      0.11445488	     -7.52140734	      0.00000000	      0.00000000	    -23.51211287	     -4.18212707	     -0.82975957	     68.27136563	    -17.04006146	     17.03569133	     52.61657476	     83.27503019	      0.00000000	      0.00000000	     74.86119237	     -9.45818448	     22.40315382	     43.38112211	     87.14341722	      0.00000000	      0.00000000
      0.51000000	      9.64395418	      6.80699087	      1.93463896	     -0.33630281	      1.04159456	     -0.75423657	     -2.40488923	     -1.74033008	     -4.73446801	      9.82762149	      0.17152435	     -4.69466912	      0.00000000	      0.00000000	     28.25871689	      6.46365410	      2.09459263	      6.68342087	      0.11664770	     -7.36583999	      0.00000000	      0.00000000	    -23.54761261	     -4.14068035	     -0.82894372	     68.31850632	    -17.01948892	     16.88607447	     52.52805427	     84.49270334	      0.00000000	      0.00000000	     74.93889525	     -9.25360376	     22.10401289	     43.13669350	     87.02223210	      0.00000000	      0.00000000
      0.51500000	      9.62446749	      6.79627320	      1.95476749	     -0.33634437	      1.04145211	     -0.75421360	     -2.30863819	     -1.73316032	     -4.75134507	      9.98152330	      0.17421045	     -4.63523709	      0.00000000	      0.00000000	     28.35858704	      6.49107207	      2.24237810	      6.80286481	      0.11873239	     -7.20681238	      0.00000000	      0.00000000	    -23.55206596	     -4.12768735	     -0.85374073	     68.39451750	    -17.02582912	     17.06362084	     52.48229288	     82.62954612	      0.00000000	      0.00000000	     75.02006911	     -9.24503991	     22.14848177	     43.07239128	     87.26874200	      0.00000000	      0.00000000
      0.52000000	      9.65984135	      6.80264806	      1.98120722	     -0.33634872	      1.04143293	     -0.75420283	     -2.30511882	     -1.73825717	     -4.79651922	     10.07105706	      0.17577310	     -4.60251186	      0.00000000	      0.00000000	     28.35034677	      6.53566118	      2.32891521	      6.79360074	      0.11857070	     -7.19918355	      0.00000000	      0.00000000	    -23.61772209	     -4.14103015	     -0.86486373	     68.40376778	    -17.05905726	     16.89200202	     52.49897634	     84.45442238	      0.00000000	      0.00000000	     75.07754071	     -9.16196055	     22.10264278	     43.05042762	     87.02325892	      0.00000000	      0.00000000
      0.52500000	      9.66626379	      6.80321545	      1.98663355	     -0.33635390	      1.04134376	     -0.75415601	     -2.24379579	     -1.74241572	     -4.84827789	     10.21808829	      0.17833928	     -4.55299265	      0.00000000	      0.00000000	     28.39741788	      6.56254801	      2.33452899	      6.83546831	      0.11930143	     -7.21885368	      0.00000000	      0.00000000	    -23.65014068	     -4.13858546	     -0.88441219	     68.47417201	    -17.06176855	     16.97462316	     52.45796322	     84.23936842	      0.00000000	      0.00000000	     75.11504362	     -9.16990189	     22.10730932	     43.05815287	     87.05785855	      0.00000000	      0.00000000
      0.53000000	      9.67081273	      6.74961122	      2.01607126	     -0.33640291	      1.04128390	     -0.75414126	     -2.17856748	     -1.68864069	     -4.95943408	     10.33406802	      0.18036351	     -4.70198915	      0.00000000	      0.00000000	     28.41504043	      6.54027198	      2.50426502	      6.79203525	      0.11854338	     -7.33525070	      0.00000000	      0.00000000	    -23.70281910	     -4.06915346	     -0.87719143	     68.52386869	    -17.13168357	     17.12028282	     52.55305372	     81.98460844	      0.00000000	      0.00000000	     75.13634562	     -8.99249176	     21.65382095	     43.00076872	     87.25778304	      0.00000000	      0.00000000
      0.53500000	      9.69105811	      6.81883247	      1.98417486	     -0.33642413	      1.04117139	     -0.75405833	     -2.12246923	     -1.76942709	     -4.85607454	     10.52024062	      0.18361284	     -4.39407374	      0.00000000	      0.00000000	     28.46730499	      6.61636621	      2.41847017	      6.89205011	      0.12028897	     -7.21041909	      0.00000000	      0.00000000	    -23.76160568	     -4.15824855	     -0.93016054	     68.60787222	    -17.06594599	     17.01463158	     52.45880432	     84.62158405	      0.00000000	      0.00000000	     75.26750136	     -9.21781774	     22.27787284	     43.11762897	     87.01880989	      0.00000000	      0.00000000
      0.54000000	      9.69091436	      6.75863130	      1.99987919	     -0.33644798	      1.04106546	     -0.75401053	     -2.05144779	     -1.71077542	     -4.87706778	     10.66183546	      0.18608413	     -4.34790313	      0.00000000	      0.00000000	     28.52615514	      6.56973642	      2.38726919	      6.91594581	      0.12070603	     -7.30503758	      0.00000000	      0.00000000	    -23.79761720	     -4.09880238	     -0.89546527	     68.66608868	    -17.09405930	     16.96853818	     52.42044146	     84.49207161	      0.00000000	      0.00000000	     75.31173802	     -9.20113269	     22.33060330	     43.19083394	     87.02924228	      0.00000000	      0.00000000
      0.54500000	      9.71523277	      6.80025779	      1.97444840	     -0.33648931	      1.04098831	     -0.75395839	     -1.99200184	     -1.76722931	     -4.91045753	     10.83462489	      0.18909988	     -4.27174322	      0.00000000	      0.00000000	     28.54580152	      6.61740055	      2.38730048	      6.95083994	      0.12131504	     -7.28385210	      0.00000000	      0.00000000	    -23.84494609	     -4.14170843	     -0.93847162	     68.75911262	    -17.08803751	     17.18848368	     52.37983883	     84.55382433	      0.00000000	      0.00000000	     75.37726462	     -9.21321875	     22.32329338	     43.11143418	     87.01709234	      0.00000000	      0.00000000
